<svg width="42" height="29" viewBox="0 0 42 29" fill="none" xmlns="http://www.w3.org/2000/svg">
<path d="M0.72417 0.906372C0.324269 0.906372 0 1.23056 0 1.63046V27.6994C0 28.0993 0.324269 28.4235 0.72417 28.4235H9.41381V0.906372H0.72417Z" fill="#FF4B55"/>
<path d="M41.2758 0.906372H32.5861V28.4235H41.2758C41.6757 28.4235 41.9999 28.0993 41.9999 27.6994V1.63046C41.9999 1.23056 41.6757 0.906372 41.2758 0.906372Z" fill="#FF4B55"/>
<path d="M25.3943 17.8444L29.6913 15.389L28.7053 14.896C28.4288 14.7577 28.2704 14.4591 28.3114 14.1526L28.6322 11.7473L26.813 12.2765C26.4111 12.3935 25.9941 12.1463 25.9037 11.7377L25.7295 10.9502L24.0213 12.9493C23.7845 13.2264 23.3334 13.0147 23.3952 12.6554L24.1247 8.41376L23.0078 8.71925C22.6816 8.8085 22.3371 8.66002 22.178 8.36159L21.0019 6.15733V6.15405L21.0011 6.15569L21.0002 6.15405V6.15733L19.8241 8.36159C19.6649 8.65994 19.3204 8.80842 18.9941 8.71925L17.8772 8.41376L18.6067 12.6554C18.6685 13.0146 18.2173 13.2263 17.9805 12.9493L16.2723 10.9502L16.0981 11.7377C16.0077 12.1463 15.5907 12.3934 15.1888 12.2765L13.3696 11.7473L13.6904 14.1526C13.7313 14.459 13.573 14.7577 13.2965 14.896L12.3105 15.389L16.6075 17.8445C17.0526 18.0988 17.2477 18.6383 17.0681 19.1184L16.7008 20.1009L20.3828 19.7866C20.5865 19.7692 20.7599 19.9332 20.7539 20.1376L20.638 24.0787H21.3621L21.246 20.1374C21.2401 19.933 21.4135 19.769 21.6172 19.7864L25.3009 20.1009L24.9336 19.1184C24.7542 18.6382 24.9492 18.0987 25.3943 17.8444Z" fill="#FF4B55"/>
</svg>
