<svg width="19" height="20" viewBox="0 0 19 20" fill="none" xmlns="http://www.w3.org/2000/svg">
<path d="M16.5958 0.746094H2.18467C1.66348 0.746094 1.16363 0.953137 0.795094 1.32168C0.426556 1.69021 0.219513 2.19006 0.219513 2.71125L0.219513 17.1224C0.219513 17.6436 0.426556 18.1434 0.795094 18.512C1.16363 18.8805 1.66348 19.0876 2.18467 19.0876H7.80379V12.8519H5.22452V9.91683H7.80379V7.67982C7.80379 5.13535 9.3186 3.72986 11.6387 3.72986C12.7498 3.72986 13.9117 3.92801 13.9117 3.92801V6.4254H12.6315C11.3701 6.4254 10.9767 7.20819 10.9767 8.01103V9.91683H13.7926L13.3423 12.8519H10.9767V19.0876H16.5958C17.117 19.0876 17.6169 18.8805 17.9854 18.512C18.3539 18.1434 18.561 17.6436 18.561 17.1224V2.71125C18.561 2.19006 18.3539 1.69021 17.9854 1.32168C17.6169 0.953137 17.117 0.746094 16.5958 0.746094Z" fill="black"/>
</svg>
