<svg width="19" height="19" viewBox="0 0 19 19" fill="none" xmlns="http://www.w3.org/2000/svg">
<rect y="0.582397" width="18.3415" height="18.3415" rx="3" fill="black"/>
<path d="M9.17071 6.07939C7.13775 6.07939 5.49705 7.72009 5.49705 9.75306C5.49705 11.786 7.13775 13.4267 9.17071 13.4267C11.2037 13.4267 12.8444 11.786 12.8444 9.75306C12.8444 7.72009 11.2037 6.07939 9.17071 6.07939ZM9.17071 12.1407C7.856 12.1407 6.7831 11.0678 6.7831 9.75306C6.7831 8.43834 7.856 7.36544 9.17071 7.36544C10.4854 7.36544 11.5583 8.43834 11.5583 9.75306C11.5583 11.0678 10.4854 12.1407 9.17071 12.1407ZM12.9948 5.07276C12.5202 5.07276 12.1369 5.45607 12.1369 5.93072C12.1369 6.40538 12.5202 6.78869 12.9948 6.78869C13.4695 6.78869 13.8528 6.40717 13.8528 5.93072C13.8529 5.81801 13.8308 5.70638 13.7878 5.60223C13.7447 5.49807 13.6815 5.40343 13.6018 5.32373C13.5221 5.24404 13.4275 5.18085 13.3233 5.13778C13.2192 5.09471 13.1075 5.07262 12.9948 5.07276ZM16.3318 9.75306C16.3318 8.76434 16.3407 7.78457 16.2852 6.79764C16.2297 5.6513 15.9682 4.63392 15.1299 3.79566C14.2898 2.95561 13.2743 2.69589 12.1279 2.64036C11.1392 2.58484 10.1594 2.59379 9.1725 2.59379C8.18378 2.59379 7.20402 2.58484 6.21709 2.64036C5.07075 2.69589 4.05337 2.9574 3.21511 3.79566C2.37506 4.63572 2.11534 5.6513 2.05981 6.79764C2.00429 7.78636 2.01324 8.76613 2.01324 9.75306C2.01324 10.74 2.00429 11.7215 2.05981 12.7085C2.11534 13.8548 2.37685 14.8722 3.21511 15.7104C4.05516 16.5505 5.07075 16.8102 6.21709 16.8657C7.20581 16.9213 8.18558 16.9123 9.1725 16.9123C10.1612 16.9123 11.141 16.9213 12.1279 16.8657C13.2743 16.8102 14.2916 16.5487 15.1299 15.7104C15.97 14.8704 16.2297 13.8548 16.2852 12.7085C16.3425 11.7215 16.3318 10.7418 16.3318 9.75306ZM14.7555 13.9766C14.6248 14.3026 14.4672 14.5462 14.2146 14.797C13.9621 15.0495 13.7203 15.2071 13.3943 15.3379C12.4521 15.7122 10.215 15.6281 9.17071 15.6281C8.12647 15.6281 5.88752 15.7122 4.94537 15.3397C4.61938 15.2089 4.37578 15.0513 4.12502 14.7987C3.87247 14.5462 3.71484 14.3044 3.58409 13.9784C3.21153 13.0345 3.29571 10.7973 3.29571 9.75306C3.29571 8.70881 3.21153 6.46986 3.58409 5.52771C3.71484 5.20172 3.87247 4.95812 4.12502 4.70736C4.37757 4.4566 4.61938 4.29719 4.94537 4.16643C5.88752 3.79387 8.12647 3.87806 9.17071 3.87806C10.215 3.87806 12.4539 3.79387 13.3961 4.16643C13.722 4.29719 13.9656 4.45481 14.2164 4.70736C14.469 4.95992 14.6266 5.20172 14.7573 5.52771C15.1299 6.46986 15.0457 8.70881 15.0457 9.75306C15.0457 10.7973 15.1299 13.0345 14.7555 13.9766Z" fill="white"/>
</svg>
