<svg width="88" height="43" viewBox="0 0 88 43" fill="none" xmlns="http://www.w3.org/2000/svg">
<path d="M8.63598 24.0335L6.05858 15.1967H4.58577V24.0335H0V0H6.69456C10.5105 0 13.2552 3.0795 13.2552 7.46444C13.2552 11.5481 11.5146 13.3891 10.1423 14.1255L13.4561 24.0335H8.63598ZM8.63598 7.59833C8.63598 5.42259 7.73222 3.98326 5.99163 3.98326H4.5523V11.1799H5.99163C7.73222 11.2134 8.63598 9.77406 8.63598 7.59833Z" fill="#2D2D2D"/>
<path d="M17.3054 24.0335V0H27.8159V3.98326H21.8242V9.77406H27.5481V13.7573H21.8242V19.9833H27.8159V23.9665H17.3054V24.0335Z" fill="#2D2D2D"/>
<path d="M36.4516 24.0335L31.4307 0H36.0834L39.0625 18.2092L42.0081 0H46.6608L41.6399 24.0335H36.4516Z" fill="#2D2D2D"/>
<path d="M50.3434 24.0335V0H54.8957V24.0335H50.3434Z" fill="#2D2D2D"/>
<path d="M63.5649 24.0335L58.5439 0H63.1967L66.1757 18.2092L69.1213 0H73.7741L68.7531 24.0335H63.5649Z" fill="#2D2D2D"/>
<path d="M77.4562 24.0335V0H87.9666V3.98326H81.975V9.77406H87.7323V13.7573H82.0085V19.9833H88.0001V23.9665H77.4562V24.0335Z" fill="#2D2D2D"/>
<path d="M0 41.037L0.937238 39.2964C1.43933 39.8989 2.17573 40.2336 2.84519 40.2336C3.54812 40.2336 4.01674 39.6981 4.01674 38.9617C4.01674 36.9198 0.334728 36.9198 0.334728 33.4052C0.334728 31.6646 1.50628 30.1583 3.54812 30.1583C4.5523 30.1583 5.45607 30.4931 6.09205 31.0956L5.25523 32.8027C4.78661 32.3341 4.25105 32.1332 3.64854 32.1332C3.01255 32.1332 2.5774 32.6018 2.5774 33.3048C2.5774 35.1123 6.25941 35.3466 6.25941 38.8613C6.25941 40.8027 4.95398 42.242 3.01255 42.242C1.74059 42.1751 0.769875 41.7734 0 41.037Z" fill="#2D2D2D"/>
<path d="M9.00446 38.5942V30.3264H11.2137V38.6946C11.2137 39.8327 11.6488 40.2344 12.3183 40.2344C12.9877 40.2344 13.4229 39.8327 13.4229 38.6946V30.3264H15.6321V38.5942C15.6321 41.1047 14.0588 42.1758 12.3183 42.1758C10.6111 42.1758 9.00446 41.1047 9.00446 38.5942Z" fill="#2D2D2D"/>
<path d="M18.8453 41.975V30.3264H21.9917C24.2344 30.3264 25.2721 32.067 25.2721 34.0084C25.2721 35.9498 24.2344 37.6904 21.9917 37.6904H21.0545V41.975H18.8453ZM23.0294 34.0084C23.0294 32.9708 22.5942 32.2678 21.7574 32.2678H21.0545V35.749H21.7574C22.5942 35.749 23.0294 35.0461 23.0294 34.0084Z" fill="#2D2D2D"/>
<path d="M27.9497 41.975V30.3264H33.0376V32.2678H30.1254V35.0796H32.9037V37.021H30.1254V40.0335H33.0376V41.975H27.9497Z" fill="#2D2D2D"/>
<path d="M40.1005 41.975L38.8285 37.6904H38.1256V41.975H35.9164V30.3264H39.1632C41.0042 30.3264 42.3432 31.7992 42.3432 33.9415C42.3432 35.9164 41.5063 36.7867 40.8369 37.1549L42.4436 41.9415H40.1005V41.975ZM40.1005 34.0084C40.1005 32.9708 39.6653 32.2678 38.8285 32.2678H38.1256V35.749H38.8285C39.6653 35.749 40.1005 35.0461 40.1005 34.0084Z" fill="#2D2D2D"/>
<path d="M45.356 41.975V30.3264H50.4439V32.2678H47.5652V35.0796H50.3435V37.021H47.5652V41.975H45.356Z" fill="#2D2D2D"/>
<path d="M52.9205 36.1507C52.9205 32.7365 53.9917 30.1256 56.5691 30.1256C59.113 30.1256 60.1841 32.7365 60.1841 36.1507C60.1841 39.5649 59.113 42.1758 56.5691 42.1758C53.9917 42.1758 52.9205 39.5649 52.9205 36.1507ZM57.9415 36.1507C57.9415 33.8411 57.6067 32.1005 56.5691 32.1005C55.5314 32.1005 55.1632 33.8411 55.1632 36.1507C55.1632 38.4269 55.4979 40.2009 56.5691 40.2009C57.6067 40.2344 57.9415 38.4269 57.9415 36.1507Z" fill="#2D2D2D"/>
<path d="M62.6609 36.1507C62.6609 32.7365 63.732 30.1256 66.3094 30.1256C68.8534 30.1256 69.9245 32.7365 69.9245 36.1507C69.9245 39.5649 68.8534 42.1758 66.3094 42.1758C63.732 42.1758 62.6609 39.5649 62.6609 36.1507ZM67.6818 36.1507C67.6818 33.8411 67.3471 32.1005 66.3094 32.1005C65.2718 32.1005 64.9036 33.8411 64.9036 36.1507C64.9036 38.4269 65.2383 40.2009 66.3094 40.2009C67.3136 40.2344 67.6818 38.4269 67.6818 36.1507Z" fill="#2D2D2D"/>
<path d="M72.7701 41.975V30.3264H75.6487C78.4605 30.3264 79.5985 32.8369 79.5985 36.1507C79.5985 39.498 78.4605 41.975 75.6487 41.975H72.7701ZM77.3893 36.1507C77.3893 33.5733 76.8203 32.2678 75.6822 32.2678H74.9793V40.0335H75.6822C76.8203 40.0335 77.3893 38.6277 77.3893 36.1507Z" fill="#2D2D2D"/>
<path d="M81.7405 41.0377L82.6778 39.2971C83.1799 39.8996 83.9163 40.2344 84.5857 40.2344C85.2887 40.2344 85.7573 39.6988 85.7573 38.9624C85.7573 36.9206 82.0753 36.9206 82.0753 33.4059C82.0753 31.6653 83.2468 30.1591 85.2887 30.1591C86.2928 30.1591 87.1966 30.4938 87.8326 31.0963L86.9958 32.8034C86.5271 32.3348 85.9916 32.134 85.3891 32.134C84.7531 32.134 84.3179 32.6026 84.3179 33.3055C84.3179 35.113 87.9999 35.3473 87.9999 38.862C87.9999 40.8034 86.6945 42.2427 84.7531 42.2427C83.4811 42.1758 82.5104 41.7741 81.7405 41.0377Z" fill="#2D2D2D"/>
</svg>
