<svg width="72" height="59" viewBox="0 0 72 59" fill="none" xmlns="http://www.w3.org/2000/svg">
<path fill-rule="evenodd" clip-rule="evenodd" d="M33.9186 6.14504C41.8163 4.94047 49.5051 -2.54261 56.6906 0.895943C63.7226 4.26107 63.4921 14.1706 65.9416 21.4695C68.4044 28.8081 74.3541 36.5429 70.9987 43.5315C67.6172 50.5743 57.653 50.8832 50.3581 53.9263C44.9384 56.1872 39.8064 58.9811 33.9186 58.9999C28.0162 59.0187 22.62 56.741 17.4015 54.0313C11.32 50.8734 4.09003 48.2908 1.35331 42.0901C-1.45285 35.732 0.568216 28.3143 3.21621 21.8911C5.72628 15.8024 9.83545 10.178 15.7623 7.13835C21.2706 4.31334 27.7786 7.08151 33.9186 6.14504Z" fill="#FEE343"/>
</svg>
