<svg width="19" height="19" viewBox="0 0 19 19" fill="none" xmlns="http://www.w3.org/2000/svg">
<path d="M16.8153 0.582397H2.40418C1.31925 0.582397 0.439026 1.46262 0.439026 2.54755V16.9587C0.439026 18.0436 1.31925 18.9239 2.40418 18.9239H16.8153C17.9003 18.9239 18.7805 18.0436 18.7805 16.9587V2.54755C18.7805 1.46262 17.9003 0.582397 16.8153 0.582397ZM14.8133 7.08379C14.8215 7.19843 14.8215 7.31715 14.8215 7.43179C14.8215 10.9814 12.1194 15.0713 7.18197 15.0713C5.65897 15.0713 4.24652 14.6292 3.05923 13.8677C3.27622 13.8922 3.48502 13.9004 3.7061 13.9004C4.96298 13.9004 6.11751 13.4746 7.03868 12.7541C5.85958 12.7295 4.86882 11.9557 4.52901 10.8913C4.94251 10.9527 5.31507 10.9527 5.74086 10.8422C4.51263 10.5924 3.59146 9.51158 3.59146 8.20557V8.17282C3.94765 8.37343 4.36525 8.49625 4.80331 8.51262C4.43502 8.26765 4.1331 7.93531 3.92451 7.54526C3.71591 7.15521 3.60712 6.71958 3.60784 6.27726C3.60784 5.77778 3.73885 5.31924 3.97221 4.92212C5.2946 6.55156 7.28023 7.61602 9.50741 7.73066C9.12666 5.90879 10.49 4.43083 12.1276 4.43083C12.9014 4.43083 13.5974 4.75426 14.0887 5.2783C14.6946 5.16367 15.276 4.93849 15.7918 4.63144C15.5912 5.25374 15.1695 5.77778 14.6127 6.1094C15.1531 6.05208 15.6772 5.9006 16.1603 5.6918C15.7959 6.22813 15.3374 6.70304 14.8133 7.08379Z" fill="black"/>
</svg>
